Coordinates
version=1
nRows=14
nColumns=36
inDegrees=yes

Units are S.I. units (second, meters, Newtons, ...)
If the header above contains a line with 'inDegrees', this indicates whether rotational values are in degrees (yes) or radians (no).

endheader
time	pelvis_tilt	pelvis_list	pelvis_rotation	pelvis_tx	pelvis_ty	pelvis_tz	hip_flexion_r	hip_adduction_r	hip_rotation_r	knee_angle_r	knee_angle_r_beta	ankle_angle_r	subtalar_angle_r	mtp_angle_r	hip_flexion_l	hip_adduction_l	hip_rotation_l	knee_angle_l	knee_angle_l_beta	ankle_angle_l	subtalar_angle_l	mtp_angle_l	lumbar_extension	lumbar_bending	lumbar_rotation	arm_flex_r	arm_add_r	arm_rot_r	elbow_flex_r	pro_sup_r	arm_flex_l	arm_add_l	arm_rot_l	elbow_flex_l	pro_sup_l
      0.92000000	     -3.25619696	     -1.25359436	     -3.63655689	      0.72653146	      1.14076539	     -0.20948945	     -5.76574239	      1.98006479	     -3.18254121	     29.71987461	      0.51870967	     -5.47578042	      0.00558264	     -6.60540233	     17.46603159	     -1.87210835	    -12.30748668	      5.15939197	      0.09004838	     -1.27435650	     11.71860392	     -6.60540233	    -12.44786203	    -13.59863037	     -9.60476098	    -22.12143169	     -8.43808075	     -2.42020240	     44.02813706	    110.86985234	     -9.93266041	    -10.87180293	    -20.43018793	     45.80057443	    107.52142766
      0.93000000	     -3.27258518	     -1.18628904	     -4.04066354	      0.73646824	      1.14274252	     -0.20884394	     -4.55675573	      1.71028970	     -2.53966875	     32.26402585	      0.56311348	     -6.93609168	     -0.40301063	     -6.61341103	     16.94403546	     -1.90757082	    -12.61260803	      5.32439787	      0.09292827	     -0.88035958	     11.69379260	     -6.61341103	    -12.55698805	    -14.33323906	     -9.50739511	    -22.49531875	     -8.29365666	     -2.41132796	     44.07742445	    110.81921402	     -9.61997496	    -11.32805112	    -20.54786693	     45.84919067	    107.55233863
      0.94000000	     -3.36023818	     -1.15128261	     -4.48926283	      0.74613782	      1.14465069	     -0.20819436	     -3.19357621	      1.56793319	     -1.67258676	     34.86043225	      0.60842932	     -8.46736562	     -1.17068120	     -6.62341662	     16.48262122	     -1.97479536	    -13.05848119	      5.42963666	      0.09476504	     -0.53826521	     11.72492294	     -6.62341662	    -12.58925857	    -15.00331285	     -9.28744071	    -22.93502055	     -8.18329061	     -2.39665581	     44.17654211	    110.75851044	     -9.28054672	    -11.68742458	    -20.58797363	     45.89650651	    107.60026575
      0.95000000	     -3.09816973	     -1.45789266	     -4.69982843	      0.75566405	      1.14708911	     -0.20759685	     -2.36065589	      1.85957881	     -0.94024802	     37.14888517	      0.64837036	     -9.27345744	     -1.29584155	     -6.62601530	     15.63992180	     -2.30882089	    -13.06516735	      5.50215607	      0.09603074	     -0.40833049	     11.80690112	     -6.62601530	    -13.15547370	    -15.25607348	     -9.51166870	    -23.06104356	     -8.11081719	     -2.37763225	     44.21976427	    110.74455351	     -8.98215290	    -12.16798284	    -20.65900517	     45.90629755	    107.60606452
      0.96000000	     -3.40575148	     -1.45689420	     -5.32246946	      0.76512767	      1.14868987	     -0.20660505	     -0.68113965	      1.92130319	      0.11826064	     39.70266356	      0.69294220	    -11.37132351	     -3.36039281	     -6.65398262	     15.35430902	     -2.46651117	    -14.01475510	      5.50047347	      0.09600137	      0.04660446	     12.11520781	     -6.65398262	    -12.78502053	    -15.86263488	     -8.87089537	    -23.71291307	     -8.05696066	     -2.38308498	     44.53185265	    110.59068515	     -8.55286652	    -12.57086140	    -20.41904437	     45.91204537	    107.75262834
      0.97000000	     -3.22194834	     -1.58368620	     -5.69079216	      0.77475643	      1.15087850	     -0.20602841	      0.30762145	      2.05104221	      0.84456737	     41.96818309	      0.73248298	    -11.99081341	     -3.72262633	     -6.66116358	     14.42606169	     -2.57332011	    -14.29509464	      5.24515060	      0.09154515	      0.33854743	     12.16908658	     -6.66116358	    -13.07790424	    -16.28258812	     -8.74790233	    -24.07233236	     -8.09330655	     -2.22759762	     44.77999318	    110.58641368	     -8.28309537	    -12.95321656	    -20.43086737	     46.15476099	    107.79751183
      0.98000000	     -3.12396476	     -1.76471706	     -6.03092065	      0.78421964	      1.15292712	     -0.20542349	      1.37030616	      2.30135344	      1.52379431	     44.11262866	      0.76991061	    -12.45527604	     -4.48705463	     -6.67157871	     13.62499209	     -2.74539326	    -14.62252783	      5.03127030	      0.08781223	      0.46906794	     12.23771856	     -6.67157871	    -13.27284623	    -16.60546213	     -8.64690408	    -24.45601085	     -8.17960054	     -2.04765049	     45.10825104	    110.57513291	     -8.04820279	    -13.32957510	    -20.38952752	     46.40193039	    107.85809067
      0.99000000	     -3.01401490	     -1.99087178	     -6.29317124	      0.79370977	      1.15490449	     -0.20490508	      2.35847845	      2.62054869	      2.09356627	     46.07898662	      0.80423003	    -12.63369102	     -5.28428994	     -6.68283914	     12.80556295	     -2.93289346	    -14.83382642	      4.80298365	      0.08382788	      0.64585082	     12.28657435	     -6.68283914	    -13.46343862	    -16.84588754	     -8.62235778	    -24.80867745	     -8.28752044	     -1.86187823	     45.41567906	    110.56288844	     -7.86267797	    -13.70268295	    -20.34104762	     46.65571611	    107.91846921
      1.00000000	     -2.78609472	     -2.38552586	     -6.35159314	      0.80317102	      1.15705538	     -0.20463340	      3.10648519	      3.08193877	      2.36545778	     47.74421598	      0.83329377	    -12.63319159	     -5.56355584	     -6.68483404	     11.92029740	     -3.26171664	    -14.85910500	      4.68484299	      0.08176594	      0.75263022	     12.32095314	     -6.68483404	    -13.83128644	    -16.85077304	     -8.85820388	    -24.94993360	     -8.35860985	     -1.82074450	     45.47719816	    110.56250271	     -7.65900089	    -14.05271904	    -20.37162997	     46.75328647	    107.92908115
      1.01000000	     -2.74234071	     -2.47163928	     -6.72688246	      0.81253009	      1.15864288	     -0.20411383	      4.16737089	      3.28737744	      2.96617534	     49.53645388	      0.86457422	    -11.97495544	     -6.77010020	     -6.69157865	     11.07900937	     -3.28404357	    -14.94674630	      4.28153465	      0.07472688	      1.11542059	     12.30145870	     -6.69157865	    -13.85755204	    -17.21037868	     -8.70261995	    -25.42991264	     -8.56921312	     -1.54435900	     45.97709896	    110.59363126	     -7.57717288	    -14.37772950	    -20.29646908	     47.23382141	    107.99356150
      1.02000000	     -2.65337088	     -2.70889506	     -6.88692987	      0.82175838	      1.16024941	     -0.20382946	      5.09154056	      3.61456676	      3.24359624	     51.04345806	      0.89087640	    -11.49835124	     -7.71581931	     -6.69874598	     10.31496409	     -3.45713368	    -14.95233924	      4.08739438	      0.07133849	      1.29375122	     12.22838215	     -6.69874598	    -13.99864267	    -17.34442528	     -8.79987410	    -25.73433138	     -8.73710915	     -1.39061924	     46.28132550	    110.59788237	     -7.47804751	    -14.70776607	    -20.22930333	     47.57190209	    108.04041503
      1.03000000	     -2.54522883	     -2.94496187	     -7.03280409	      0.83092313	      1.16175587	     -0.20359748	      5.96974918	      3.92253459	      3.44445957	     52.38576573	      0.91430409	    -11.00335113	     -8.64394001	     -6.70454455	      9.53982383	     -3.62351554	    -14.88107616	      3.91275880	      0.06829052	      1.52736697	     12.14827732	     -6.70454455	    -14.14735818	    -17.46314920	     -8.91210365	    -25.98526031	     -8.89075907	     -1.30038111	     46.50244713	    110.59624995	     -7.36985350	    -15.02940788	    -20.17957649	     47.87832256	    108.07579818
      1.04000000	     -2.45905419	     -3.13877627	     -7.15997534	      0.83997570	      1.16306634	     -0.20340493	      6.86109248	      4.16861318	      3.54949710	     53.58732641	      0.93527528	    -10.53653788	     -9.75430573	     -6.71131159	      8.81138237	     -3.74178197	    -14.76909469	      3.75194139	      0.06548373	      1.78087166	     11.99360345	     -6.71131159	    -14.26255443	    -17.60469562	     -9.01801837	    -26.25470503	     -9.04000085	     -1.24161708	     46.73155734	    110.58663808	     -7.26779353	    -15.36431818	    -20.10714592	     48.24020325	    108.11273277
      1.05000000	     -2.37135970	     -3.30995176	     -7.25795722	      0.84892489	      1.16422270	     -0.20333052	      7.74188119	      4.37486527	      3.58234787	     54.64874690	      0.95380057	    -10.22608063	    -10.97367670	     -6.71884484	      8.11165208	     -3.82624080	    -14.60084816	      3.62381623	      0.06324752	      2.02667790	     11.76808218	     -6.71884484	    -14.37840109	    -17.73535235	     -9.14654895	    -26.49120533	     -9.16739304	     -1.24712544	     46.91400377	    110.56253865	     -7.14820119	    -15.66369617	    -20.00999099	     48.59723184	    108.14396548
